<svg xmlns="http://www.w3.org/2000/svg" width="310" height="166" viewBox="0 0 310 166">
  <defs>
    <style>
      .cls-1 {
        fill: #efcda0;
        fill-rule: evenodd;
      }
    </style>
  </defs>
  <path id="Preenchimento_de_Cor_1" data-name="Preenchimento de Cor 1" class="cls-1" d="M156.705,7h3.006V7.252h0.9V7.5h6.613V7.757h4.509c1.466,0.206,4.234.274,5.712,0.5a4.137,4.137,0,0,1,.3,1.767c0.5,0.491-.1,2.006-0.3,2.777l-3.006.252s-0.03-.211-0.6-0.252l-11.422-.252a3.5,3.5,0,0,1-.9,1.01v5.554h0.3v0.253l13.227,0.757c0.675,1.075.627,1.582,0.6,3.282-0.342.288-.12,0-0.3,0.5a4.439,4.439,0,0,1-1.5.253V24.42c-0.425,0,.124-0.225-0.3-0.252H169.03V23.915h-7.515a1.907,1.907,0,0,0-.6,1.515c-0.492.422-.369,4.586,0,5.049l0.9,0.252c0.881,0.637,2.883-.059,4.209.252v0.253h4.809c1.73,0.126,4.9.25,6.614,0.5,0.7,1.117.627,1.786,0.6,3.534-0.342.288-.12,0-0.3,0.5a3.425,3.425,0,0,0-.6.5h-3.908c-1.029-.745-3.586.105-5.11-0.252V35.78h-6.613V35.528H155.5a0.705,0.705,0,0,0-.6-0.253c-0.508-1.145-.316-3.245-0.3-4.8,1.03-1.011-.224-4.742.3-6.311h0.3V20.885h0.3a0.37,0.37,0,0,0-.3-0.5q0.15-.757.3-1.515V16.341h0.3a0.633,0.633,0,0,0-.3-0.757V13.816h0.3V8.262h0.3v-0.5h0.3ZM140.172,21.39c2.276,0.456,3.559,2.707,4.209,4.544v2.02a1.338,1.338,0,0,1,.3,1.01h-0.3v2.02a14.476,14.476,0,0,0-.9,2.02c-1.238.592-1.942,1.764-3.307,2.272h-0.9v0.253h-0.9V35.78h-1.2v0.253h-1.8v0.252h-1.8v0.252h-2.7V36.79h-2.706a31.931,31.931,0,0,1-7.214.757l-0.3-.5h-0.3c-0.958-1.224-.044-4.155-0.6-5.806h-0.3V28.964h-0.3v-2.02h-0.3V24.672h-0.3V22.4h-0.3V20.38h-0.3v-2.02h-0.3v-2.02a20.69,20.69,0,0,1-.9-5.554,3.169,3.169,0,0,0,.6-0.5h0.6V10.03h2.1V9.777h2.405V9.525h2.7V9.272h2.405V9.02h3.908V8.767h3.607V9.02h2.1V9.272h0.9V9.525h0.6l2.1,1.515c0.641,0.8,1.91,5.5,1.2,7.321h-0.3l-0.3,1.262-0.6.252v0.5h-0.3A1.574,1.574,0,0,0,140.172,21.39ZM157.306,8.767c0.343,0.287,0,.1.6,0.252C157.565,8.732,157.907,8.919,157.306,8.767Zm18.638,1.01v0.757h0.6V9.777h-0.6Zm25.851,1.01c2.728-.016,4.71.631,7.215,0.757a3.446,3.446,0,0,1,.6,2.524c0.805,0.793.192,2.592,0.6,3.787h0.3v1.767h0.3v2.02h0.3v2.525h0.3v2.525h0.3v2.525h0.3v2.525h0.3v2.272h0.3V35.78a15.289,15.289,0,0,1,.9,4.8l-0.9.253c-0.658.469-3.51-.322-4.509-0.5a2.834,2.834,0,0,0-.6-0.5v-0.5h-0.3V36.79h-0.3V35.023h-0.3q-0.15-.631-0.3-1.262a36.927,36.927,0,0,0-12.324-2.02l-0.6.757h-0.3q-0.15.5-.3,1.01l-0.6.252v0.5h-0.3v0.5h-0.3v0.5h-0.3c-0.6.92-.13,0.862-1.2,1.515v0.252h-3.006V36.79l-1.8-.252a1.9,1.9,0,0,0-.6-0.757l0.6-1.515,0.6-.252q0.151-.5.3-1.01l0.6-.253q0.15-.5.3-1.01l0.6-.253q0.15-.5.3-1.01l0.6-.253v-0.5h0.3v-0.5h0.3v-0.5h0.3v-0.5h0.3V27.7h0.3l0.3-1.01,0.6-.253,0.6-1.515,1.2-.5q0.15-.757.3-1.515h0.3q0.3-.757.6-1.515h0.3q0.151-.5.3-1.01l0.6-.252q0.3-.757.6-1.515l0.6-.252v-0.5h0.3v-0.5h0.3v-0.5h0.3v-0.5l0.6-.253v-0.5h0.3v-0.5h0.3v-0.5h0.3V14.069h0.3v-0.5l0.6-.252q0.15-.5.3-1.01l0.6-.252v-0.5l0.6-.252V11.039h0.6V10.787Zm-83.867.5v0.5h0.6v-0.5h-0.6Zm88.677,1.515,0.9,0.252V12.807c0.342-.288.119,0,0.3-0.5a0.491,0.491,0,0,1-.3-0.252c-0.6.145-.26-0.03-0.6,0.252S206.786,12.3,206.605,12.807Zm-68.236-.252v0.5h0.6v-0.5h-0.6Zm-8.718,1.01c-0.956.688-3.4,0.121-4.809,0.5v0.253c-0.529.161-.786,0.111-1.2,0.252-0.454,1.022-.315,2.874-0.3,4.292h0.3V20.38c0.528,1.072,1.482,1.045,3.307,1.01V21.138h2.405c2.2-.545,5.415-0.352,6.012-2.272,1.292-1.035.3-3.154,0-4.292l-0.9-.505C133.624,13.354,131.335,13.535,129.651,13.564ZM99.29,28.964v0.505l1.8,1.262v0.252h0.6l5.411,4.8c1.34,0.816,2.783,1.274,3.006,3.03a11.735,11.735,0,0,1-5.411,1.262l-6.613-5.806-0.9-.252c-1.207-.917-1.844-2.308-3.908-2.525-0.643-.362-2.932.326-3.908,0.5-0.65,2.838.928,6.142,1.8,8.584v2.272a9.169,9.169,0,0,1-5.11,1.262V43.859h-0.3a21.362,21.362,0,0,0-1.5-4.8V37.8h-0.3V36.79h-0.3V35.78h-0.3V34.518h-0.3v-1.01h-0.3V32.5h-0.3l-0.6-3.534h-0.3V27.7h-0.3v-1.01h-0.3v-1.01h-0.3v-1.01h-0.3l-0.3-2.272a12.743,12.743,0,0,1-1.2-5.049,3.053,3.053,0,0,0,.6-0.5h0.6V16.593h1.2V16.341h1.5V16.089h0.9V15.836h1.2c4.325-1.216,12.895-3.361,17.134-.757v0.252l0.6,0.253v0.5l0.9,0.5c0.568,0.723,2.309,5.347,1.8,6.816q-0.6,1.515-1.2,3.029a12.565,12.565,0,0,0-1.5,1.262A13.619,13.619,0,0,1,99.29,28.964Zm143.688,8.079c0.132,1.384.991,2.453,1.5,3.534q0.45,1.641.9,3.282a14.143,14.143,0,0,1,1.5,5.807c-2.611.4-3.474-.82-5.711-1.262a21.281,21.281,0,0,0-1.2-3.282q-0.3-1.388-.6-2.777h-0.3V41.082h-0.3V40.325h-0.3v-1.01h-0.3V38.3h-0.3l-0.3-1.515h-0.3V36.033h-0.3q-0.151-.379-0.3-0.757c-1.873-.327-2.37-1.213-4.81-1.262l-0.3,1.01h-0.3v1.01h-0.3V36.79h-0.3v0.757h-0.3V38.3h-0.3v0.757h-0.3V39.82h-0.3v1.01h-0.3v0.5h-0.3c-0.626,1.209-.158,2.168-1.8,2.525v0.252h-0.9V43.859h-1.2V43.607h-0.6V43.354h-0.9V43.1l-0.9-.252-0.3-.757h0.3l0.3-1.767h0.3v-0.5h0.3l0.3-1.515h0.3V37.8h0.3q0.151-.631.3-1.262h0.3V35.78h0.3q0.3-1.136.6-2.272h0.3V32.751h0.3V31.993h0.3V31.236h0.3V30.479h0.3V29.721h0.3q0.15-.757.3-1.515h0.3V27.7h0.3l0.3-1.767h0.3v-0.5h0.3l0.3-1.515h0.3V23.157h0.3V22.4h0.3V21.643h0.3v-0.5h0.3q0.15-.757.3-1.515h0.3v-0.5h0.3V18.361h0.3V17.6h0.3l0.3-.757c1.6-.248,1.069-0.194,2.405.253h0.9v0.252h0.6V17.6h0.9v0.252h0.6v0.253h0.9v0.252h0.6v0.252h0.9v0.253h0.6v0.252l1.8,0.253v0.252h0.6v0.252h0.9v0.253l1.2,0.252v0.253h0.9v0.252l1.2,0.252V21.39h0.9l0.3,0.5,1.8,0.5,0.3,0.5H252v0.252l1.2,0.757v0.5h0.3a3.319,3.319,0,0,0,.6.757l0.3,3.787C252.7,33.818,250.581,37.132,242.978,37.043ZM98.088,17.1v0.5h0.6V17.1h-0.6ZM205.4,28.459c0.048-4.1-1.048-7.605-1.2-11.361-1.219.314-.37,0.133-0.9,0.757l-0.6.253v0.5h-0.3v0.5l-0.6.253v0.5h-0.3v0.5h-0.3v0.5h-0.3v0.5h-0.3v0.5l-0.6.252v0.5h-0.3v0.5h-0.3v0.5h-0.3v0.5l-0.6.252v0.5a4.674,4.674,0,0,0-1.2,2.272l0.9,0.253C199.026,28.145,203.464,28.469,205.4,28.459ZM80.052,18.108c0.342,0.288,0,.1.6,0.252C80.311,18.073,80.652,18.26,80.052,18.108Zm13.226,0.5v0.253l-6.914,1.262a9.178,9.178,0,0,0-.3,3.282,13.158,13.158,0,0,1,1.2,3.534,5.289,5.289,0,0,0,2.705.5V27.2h1.5V26.944h1.2V26.692h0.9V26.439h1.2V26.187h0.9V25.934h0.6V25.682c1.144-.442,1.709-0.088,2.1-1.262,0.791-.541,1.1-3.077.3-3.787-0.384-1.242-1.569-1.223-2.4-2.02H93.278ZM236.966,22.9c-0.3.483-.969,1.034-1.2,1.515v1.01h-0.3v0.5h-0.3q-0.452,1.767-.9,3.535l0.9,0.5v0.252h0.6v0.253h0.6v0.252h0.9v0.252h0.9v0.253h0.6v0.252h0.9v0.253h0.9v0.252h0.9v0.252h1.5V32.5l2.4-.252a3.958,3.958,0,0,1,1.2-.757,5.54,5.54,0,0,0,1.8-4.039q-0.75-.884-1.5-1.767h-0.6l-0.3-.5h-0.9V24.925h-0.6V24.672l-1.8-.252A18.884,18.884,0,0,0,236.966,22.9ZM53.6,24.42a5.5,5.5,0,0,1,2.1,1.515H56l0.3,0.757,1.8,1.262v0.5l2.705,2.02v0.5l0.6,0.253,0.9,1.01L63.519,33v0.5l2.4,1.767v0.5l3.006,2.272,0.3,0.757,0.9,0.5,1.5,1.515,2.1,1.515v0.5h0.3l0.9,1.01c1.028,0.866,2.188,1.186,2.4,2.777-1.485.669-2.691,1.58-4.81,1.767V48.151h-0.6l-0.6-.757h-0.3v-0.5l-1.5-1.01c-1.175-1.02-1.359-2.08-3.607-2.272v0.252h-1.5v0.252h-0.9v0.252h-0.9v0.252h-0.6v0.252h-0.9v0.252l-1.2.253v0.252h-0.9v0.253l-1.5.252v0.252h-0.6v0.252c-1.1.5-1.03,0.113-1.8,1.01H54.8v3.03c0.584,0.525.623,2.2,0.6,3.282l-1.2.757v0.252H53.6V55.22a10.041,10.041,0,0,1-3.307.757,2.545,2.545,0,0,0-.6-0.5V54.715h-0.3V52.7h-0.3V50.171h-0.3v-2.02h-0.3V45.121h-0.3V43.1h-0.3V40.577h-0.3V38.3h-0.3v-2.02h-0.3v-2.02h-0.3V31.993a13.223,13.223,0,0,1-.6-4.292l1.2-.757V26.692l1.8-.5V25.934h0.9V25.682h0.6V25.43l1.2-.253V24.925l1.8-.253V24.42ZM125.743,32.5c4.346,0.091,10.913-.251,12.325-2.525q0.15-1.515.3-3.03h-0.3V26.187h-0.3a2.232,2.232,0,0,0-1.5-1.01,5.191,5.191,0,0,0-3.306-.5c-2.255.543-5.51,0.623-7.816,1.01-0.454,1.022-.315,2.874-0.3,4.292h0.3v1.515h0.3ZM53,26.439V25.682a3.381,3.381,0,0,0-1.2.252,0.492,0.492,0,0,0,.3.253v0.252H53ZM261.615,55.472l-0.9.253c-0.205,0-4.141-1.669-4.208-1.767V53.452h-0.3q0.15-.883.3-1.767h0.3V50.928l0.6-.252V49.918h0.3v-0.5h0.3v-0.5h0.3q0.15-.5.3-1.01h0.3V47.393h0.3V46.636h0.3l0.3-1.01h0.3V44.869h0.3v-0.5h0.3l0.6-1.515h0.3V42.092h0.3q0.151-.5.3-1.01h0.3V40.325h0.3v-0.5h0.3q0.15-.5.3-1.01h0.3V38.053h0.3l0.3-1.01h0.3V36.285h0.3v-0.5h0.3q0.15-.5.3-1.01h0.3V34.013h0.3q0.15-.5.3-1.01h0.3V32.246h0.3v-0.5h0.3q0.151-.631.3-1.262h0.3c0.23-.39.54-1.6,0.9-1.767h1.8c1.2,1.132,3.481.674,3.607,2.777h-0.3v0.757h-0.3v0.5h-0.3v0.5h-0.3v0.505h-0.3v0.5h-0.3v0.5h-0.3v0.5h-0.3v0.5h-0.3q-0.15.5-.3,1.01h-0.3v0.5h-0.3v0.757h-0.3v0.5h-0.3q-0.15.5-.3,1.01h-0.3q-0.451,1.136-.9,2.272h-0.3v0.5h-0.3V43.1h-0.3v0.505h-0.3l-0.3,1.01h-0.3v0.757h-0.3q-0.151.631-.3,1.262h-0.3l-0.3,1.01h-0.3V48.4h-0.3v0.5h-0.3v0.757h-0.3v0.5h-0.3v0.757h-0.3v0.5h-0.3V52.19h-0.3v0.5h-0.3v0.757h-0.3q-0.15.631-.3,1.262h-0.3Zm9.018-25.5v0.5h0.9v-0.5h-0.9Zm1.2,1.262a2.162,2.162,0,0,0,.3,1.01c0.6-.145.26,0.03,0.6-0.252s0.12,0,.3-0.5h-0.3V31.236h-0.9ZM52.7,31.489a18.9,18.9,0,0,0,0,5.049H53l0.3,5.3a2.973,2.973,0,0,0,2.1.5l6.613-2.272V39.315l-2.1-2.02-1.2-.757v-0.5L55.4,33.508C54.551,32.793,54.039,31.792,52.7,31.489Zm136.172,2.02h0.6V32.5h-0.3v0.252h-0.3v0.757Zm-1.8,1.262v0.757h0.9V34.771h-0.9Zm-79.058,3.787a2.163,2.163,0,0,0-.3-1.01h-0.3V37.8c-0.125.146-.491,0.037-0.3,0.5h0.3C107.749,38.592,107.408,38.406,108.008,38.557Zm103.106,1.01c0.83-.183.672-0.07,0.9-0.757h-0.3V38.557h-0.3V38.81h-0.3v0.757ZM31.054,49.161h3.607v0.252l1.8,0.252,0.3,0.5h0.6l0.9,1.01,0.6,0.252v0.5l0.9,0.5,0.3,1.01,0.6,0.253v0.5h0.3v0.757h0.3v0.5h0.3a9.462,9.462,0,0,1-.3,4.039h-0.3v0.5h-0.3v0.5l-0.9.5v0.5h-0.3l-0.6.757h-0.6l-0.6.757h-0.6l-0.6.757h-0.6l-0.3.5-0.9.252v0.252h-0.6l-0.3.5-0.9.252v0.252l-1.2.252-0.3.5h-0.6l-0.3.5h-0.6l-0.3.5-1.2.252-0.3.5h-0.6l-0.3.505h-0.6l-0.3.5h-0.6l-0.3.5h-0.6l-0.3.5h-0.6a4.5,4.5,0,0,1-2.4.757l-0.6-.757h-0.3v-0.5l-0.6-.252V69.1l-0.6-.252-0.3-1.01-0.6-.252-0.3-1.01-0.6-.252v-0.5h-0.3l-0.3-.757-0.6-.252v-0.5l-0.9-.5V63.3l-0.6-.252-0.3-1.01-0.6-.252v-0.5l-0.6-.252v-0.5l-0.6-.252V59.764l-0.6-.252v-0.5l-0.6-.252v-0.5L10.914,58v-0.5l-0.6-.252v-0.5l-0.6-.252-0.3-1.01-0.6-.252v-0.5l-0.6-.252v-0.5l-0.6-.252V53.2h-0.3l-0.3-.757L6.4,52.19v-0.5l-0.6-.252v-0.5l-0.9-.505A3.617,3.617,0,0,1,4,47.9l1.2-.757V46.889l1.2-.252,0.3-.5,1.2-.252,0.3-.5,1.8-.505,0.3-.5,1.8-.5,0.3-.5,1.2-.253,0.3-.5,1.8-.5V41.839h0.6V41.587l1.8-.5V40.83h0.9V40.577h0.6V40.325h1.2V40.072a9.072,9.072,0,0,1,3.607.252h0.9l3.006,1.767v0.5l0.9,0.5v0.505l0.6,0.252,0.3,1.01h0.3v0.505h0.3v0.757h0.3v3.029Zm193.587-8.079h0.6V40.83h-0.3V40.577h-0.3v0.505Zm75.451,1.767h1.8V43.1l0.9,0.253v0.252c1.19,0.666,1.259.255,1.2,2.02h-0.3q-0.3,1.262-.6,2.525h-0.3v1.01h-0.3v1.01h-0.3v0.757h-0.3v1.01l-4.809,12.118v1.01h-0.3l-0.3,1.767h-0.3q-0.15.883-.3,1.767h-0.3q-0.3,1.136-.6,2.272h-0.3v0.5a3.269,3.269,0,0,0-.6.505,10.616,10.616,0,0,1-4.209-2.272l-0.6-.252V67.59h0.3V66.833h0.3a8.719,8.719,0,0,0,.6-4.039,11.053,11.053,0,0,1-1.5-1.262h-0.6l-0.3-.5h-0.6l-0.6-.757-1.2-.253q-0.15-.252-0.3-0.5l-1.2-.252q-0.15-.252-0.3-0.5h-0.6V58.5h-0.6q-0.15-.252-0.3-0.5h-0.6V57.744h-0.6q-0.15-.252-0.3-0.505h-0.6V56.987a7.392,7.392,0,0,0-3.006,1.262l-0.6.757h-0.6l-0.3.5a5.931,5.931,0,0,1-3.006,1.262c-0.661-.63-1.6-0.55-2.405-1.01V59.512l-0.9-.5V58.5h-0.3c0.172-.507-0.036-0.218.3-0.5,0.434-1.353,1.542-1.339,2.705-2.02l0.6-.757h0.6l0.6-.757h0.6l0.6-.757h0.6c1.288-.73,1.831-1.595,3.908-1.767,0.439-1.355,1.539-1.338,2.7-2.02l0.6-.757h0.6l0.3-.5,0.9-.252V48.151h0.6l0.6-.757h0.6l0.3-.5h0.6l0.6-.757h0.6l0.6-.757h0.6l0.6-.757h0.6l0.6-.757h0.6l0.6-.757h0.6l0.6-.757h0.6q0.15-.252.3-0.5h0.6l0.3-.5,2.105-.5v0.252l1.2,0.252v0.252h0.6A1.462,1.462,0,0,1,300.092,42.849ZM87.567,42.092h-0.6v0.252h0.3V42.6h0.3v-0.5ZM301.6,44.364c-0.3.776-.281,0.241,0,1.01h0.3V45.121h0.3C302.411,44.58,301.859,44.528,301.6,44.364ZM15.423,54.462a9.835,9.835,0,0,0,1.8.5V54.715l1.5-.252V54.21h0.6V53.957h0.6V53.7h0.6V53.452h0.6l0.3-.5,1.2-.252,0.3-.5h0.6V51.938h0.6V51.685l0.9-.252a8.521,8.521,0,0,0-.3-4.544c-1.551-.767-1.523-1.495-4.208-1.515v0.252l-1.5.253v0.252h-0.6v0.252h-0.6l-0.3.5h-0.6v0.252h-0.6v0.252h-0.6v0.252h-0.6V47.9h-0.6l-0.3.5h-0.6v0.252h-0.6v0.252h-0.3v0.252h-0.3v1.01h0.3l0.3,1.262,0.6,0.252,0.3,1.01,0.6,0.252v0.5h0.3A1.941,1.941,0,0,1,15.423,54.462Zm59.218-9.088c-0.3.776-.281,0.241,0,1.01h0.3V46.131h0.3C75.457,45.59,74.905,45.538,74.641,45.374Zm170.14,2.02c-0.3.776-.28,0.241,0,1.01h0.3V48.151h0.3C245.6,47.609,245.045,47.558,244.781,47.393Zm52,0.252h-1.2c-0.63.851-1.2,0.723-2.1,1.262l-0.9,1.01h-0.6l-0.6.757h-0.6l-0.6.757h-0.6l-0.6.757c-1.239.736-2.864,1.126-3.307,2.525,1.972,0.884,4.469,3.04,6.914,3.282l1.5-3.029V54.21h0.3V53.7h0.3V52.948h0.3v-1.01h0.3v-0.5h0.3l0.3-1.767h0.3v-0.5h0.3ZM6.1,48.656v-0.5a0.492,0.492,0,0,0-.3.253H5.5C5.845,48.691,5.5,48.5,6.1,48.656ZM22.637,63.8h0.6l0.3,0.5h1.2V64.056l1.5-.252,0.3-.5h0.6l0.3-.505h0.6l0.3-.5h0.6l0.3-.5,1.2-.252,0.3-.5,1.2-.252,0.3-.5h0.6l0.6-.757c1.484-.919,1.83-1.344,1.8-3.535-0.735-.535-0.694-1.247-1.8-1.515-0.736-.734-1.979-0.566-3.006-0.252h-0.9v0.252h-0.9l-0.3.5h-0.9l-0.3.5h-0.6v0.253h-0.6v0.252h-0.6V56.23h-0.6l-0.3.5-1.8.5-0.3.505h-0.6V58c-1.006.506-1.646,0.525-1.8,1.767h0.3l0.3,1.262h0.3v0.5h0.3v0.5l0.6,0.252v0.5h0.3A1.941,1.941,0,0,1,22.637,63.8Zm28.257-9.846,0.3,0.5h0.3V54.21h0.3V53.957h-0.9ZM16.325,56.734l-0.9.252c0.172,0.507-.036.218,0.3,0.5v0.253c0.6-.145.26,0.03,0.6-0.253h0.3ZM271.835,58.5h0.9V58.249c0.342-.288.12,0,0.3-0.5h-0.9V58C271.794,58.284,272.016,58,271.835,58.5Zm21.042,10.6v0.757h0.6V69.1h-0.6ZM239.37,81.98a9.872,9.872,0,0,1-.3-2.272c0.7-.388.485-0.739,0.9-1.01h0.6l0.3-.505h0.6l0.3-.5h0.9V77.436h0.9V77.184h1.8V76.931c1.911-.453,5.162.389,6.313,0.757h0.9v0.252h0.6v0.252h0.9v0.252h0.6q0.15,0.252.3,0.5l1.2,0.252q0.15,0.252.3,0.5h0.6l0.9,1.01,0.6,0.252v0.5l0.9,0.5v0.5l0.9,0.5v0.5h0.3l0.6,1.515h0.3v0.757a16.714,16.714,0,0,1,0,13.633v0.757h-0.3l-0.6,1.515h-0.3l-0.3,1.01-0.9.5v0.5l-0.9.505v0.5h-0.3l-0.9,1.009h-0.6l-1.2,1.263h-0.6l-0.6.757h-0.6c-0.1.168-.2,0.337-0.3,0.505l-1.8.5v0.252h-0.6v0.253l-1.8.505V110l-2.706.5v0.253h-0.9v0.252h-0.9v0.253l-2.1.252v0.252h-1.2v0.253h-1.8v0.252h-1.8v0.253h-1.8v0.252h-2.705v0.253h-5.11a35.364,35.364,0,0,1-7.816.252v-0.252h-3.006V112.78h-2.705v-0.252l-4.81-.253v0.5h0.9v0.5l-6.914-.757v-0.253h-0.9v-0.252h-1.8v0.252a17.7,17.7,0,0,1,5.41,1.263v0.252H206v0.253h-1.8c-0.767-.539-2.21-0.207-3.306-0.505v-0.253h-1.2v-0.252h-0.9V112.78h-1.5v-0.252h-1.2v-0.253h-1.2v-0.252h-0.9V111.77h-0.9v-0.252l-1.8-.252v-0.253h-0.6v-0.252l-1.8-.253v-0.252h-0.6V110l-1.2-.252V109.5h-0.6v-0.252h-0.6v-0.253h-0.6v-0.252h-0.6v-0.252h-0.6v-0.253h-0.6v-0.252l-2.1-.5-0.3-.5-1.2-.253v-0.252h-0.6v-0.253h-0.6v-0.252h-0.6v-0.253h-0.6v-0.252h-0.6l-0.3-.505h-0.6c-0.1-.168-0.2-0.337-0.3-0.5l-0.9-.252v-0.253l-1.2-.252-0.3-.5h-0.6c-0.1-.168-0.2-0.337-0.3-0.5h-0.6V102.43l-0.9-.253v0.253h0.6c0.922,1.264,2.751,1.709,4.208,2.524,0.1,0.168.2,0.337,0.3,0.505l0.9,0.252v0.253h0.6v0.252h0.6v0.253h0.6v0.252h0.6v0.253h0.6v0.252h0.6v0.253h0.6v0.252h0.6c0.1,0.168.2,0.337,0.3,0.505l1.5,0.253c2.141,1.076,4.581,2.127,6.913,3.029v0.252h-0.9v-0.252h-1.5v-0.252h-1.5v-0.253h-1.2v-0.252h-1.2v-0.253l-2.1-.252V110h-0.9v-0.252h-0.9V109.5h-0.9v-0.252h-0.9v-0.253l-1.8-.252v-0.252h-0.6v-0.253h-0.9v-0.252l-1.2-.253v-0.252h-0.9v-0.253l-1.8-.5v-0.252h-0.6v-0.253h-0.6v-0.252h-0.6v-0.253h-0.6v-0.252h-0.6v-0.252h-0.6c-0.1-.169-0.2-0.337-0.3-0.5l-1.8-.5-0.3-.505-1.2-.253-0.6-.757h-0.6l-1.8-1.767-0.6-.253v-0.505l-0.9-.5c-0.725-.876-0.3-1.4-1.8-1.767l-0.9,1.01h-0.3v0.5l-0.9.5v0.505l-0.6.252-1.2,1.263h-0.6l-0.6.757h-0.6c-0.1.168-.2,0.337-0.3,0.5h-0.6l-0.3.5-1.2.252V104.2h-0.6q-0.151.252-.3,0.5h-0.6v0.252h-0.6v0.253h-0.6v0.252h-0.6v0.252h-0.6v0.253h-0.6v0.252h-0.6v0.253h-0.6v0.252h-0.6v0.253l-1.8.5v0.252h-0.9v0.253l-1.2.252v0.253h-0.9v0.252h-0.9v0.252h-0.9v0.253h-0.9V109.5h-0.6v0.253l-2.1.252v0.253h-0.6v0.252l-2.405.253a27.013,27.013,0,0,1-6.914,1.262V111.77h0.3v-0.252l1.8-.252v-0.253h0.9v-0.252h0.6v-0.253h0.9v-0.252l1.8-.5V109.5h0.6v-0.252h0.6v-0.253h0.6v-0.252h0.6v-0.252h0.6v-0.253h0.6v-0.252h0.6v-0.253h0.6v-0.252h0.6l0.3-.5h0.6v-0.253h0.6v-0.252h0.6v-0.253h0.6v-0.252h0.6c0.1-.168.2-0.337,0.3-0.5h0.6v-0.252h0.6q0.15-.254.3-0.5l1.2-.253,0.3-.5c1.1-.614,2.33-0.807,3.006-1.767h-0.3v0.253l-1.2.252c-0.1.168-.2,0.337-0.3,0.5h-0.6l-0.3.5-1.2.252c-0.1.169-.2,0.337-0.3,0.5h-0.6c-0.1.168-.2,0.337-0.3,0.5l-4.809,1.767c-0.1.169-.2,0.337-0.3,0.5l-1.8.5v0.253h-0.6v0.252h-0.6v0.253l-1.8.5v0.253l-1.5.252v0.253h-0.6V110h-0.9v0.253h-0.6v0.252h-0.9v0.253h-0.6v0.252h-0.9v0.253h-0.9l-0.3.5h-0.9v0.253h-1.2v0.252h-0.9v0.253l-2.7.252a31.249,31.249,0,0,1-7.816,1.263q-0.15-.254-0.3-0.505a10.662,10.662,0,0,0,3.608-1.01c-2.726,0-4.393.714-7.215,0.757l-0.3-.5a13.752,13.752,0,0,0,3.907-.5v-0.252l-10.821.757v0.253H92.978v0.252a22.617,22.617,0,0,1-6.313-.252H82.156V112.78H79.451v-0.252h-2.1v-0.253h-1.5v-0.252h-1.8l-8.717-2.272V109.5l-1.8-.505v-0.252l-1.8-.5-0.3-.505h-0.6l-0.3-.5h-0.6l-0.6-.757h-0.6l-1.8-1.767-0.6-.253v-0.5l-0.9-.505v-0.5l-0.6-.252-0.3-.757H54.2v-0.5H53.9L53.3,99.9H53l-0.6-2.272H52.1L51.8,94.1h-0.3V90.059h0.3V88.292h0.3V87.03c2.048-4.564,4.639-7.459,9.92-9.341l2.1-.252c4-1.082,8.206-.446,10.521,1.515l0.9,0.5a2.82,2.82,0,0,1,0,2.272,5.289,5.289,0,0,1-2.705.5c-0.774-.714-1.559-0.6-2.705-1.01V80.971h-0.9l-0.3-.5h1.8a9.866,9.866,0,0,0,3.006.757V80.971l-3.006-1.262a11.42,11.42,0,0,0-5.411.5l-2.705.757-0.6.757-1.5,1.01a8.724,8.724,0,0,0-1.2,7.826v1.01h0.3l0.3,1.01h0.3v0.5l0.6,0.252v0.5l0.6,0.252v0.5l1.5,1.01,0.3,0.5h0.6l0.6,0.757h0.6l0.3,0.5,1.2,0.252v0.252h0.9v0.252h0.6V98.39h0.9v0.252L72.838,98.9v0.252h1.8V98.9h3.006V98.643h1.5V98.39l2.4-.252V97.885l2.705-.5V97.128h0.6V96.875l1.5-.252V96.371l1.8-.5V95.613h0.6V95.361h0.6V95.108l1.8-.5,0.3-.5,1.8-.5,0.3-.5,1.2-.252,0.3-.5h0.6l0.3-.5h0.6l0.3-.5h0.6V91.069l0.9-.252,0.3-.5h0.6V90.059l0.9-.252,0.3-.505h0.6l0.6-.757h0.6l0.6-.757h0.6l0.6-.757h0.6l1.2-1.262h0.6l0.9-1.01h0.6l0.9-1.01h0.6l0.9-1.01h0.6l0.3-.5h0.6l0.3-.5h0.6q0.152-.252.3-0.505h0.6l0.3-.5h0.6V80.466h0.6l0.3-.5h0.6V79.708h0.6V79.456h0.6V79.2h0.6l0.3-.5,1.8-.505V77.941h0.6V77.689l1.8-.5V76.931h0.9V76.679l1.2-.253V76.174l1.8-.252a38.467,38.467,0,0,1,13.827-2.272l5.712,0.252v0.252h1.2v0.252l1.8,0.252v0.252l1.8,0.5v0.252h0.6q0.151,0.252.3,0.5h0.6l1.5,1.515,0.9,0.5c0.879,1.043,1.555,3.395,2.705,4.039v0.252h0.3V82.233c0.839-.638.925-1.642,1.5-2.525h0.3V79.2l0.6-.252v-0.5l0.6-.252v-0.5l0.9-.5V76.931h0.6l0.6-.757h0.6q0.151-.252.3-0.5l1.2-.252V75.164l1.2-.252V74.659h0.9c5.863-1.943,14.766-.687,19.839,1.01l2.706,0.5,10.821,4.544q0.151,0.252.3,0.5l1.2,0.252v0.253l0.9,0.252,0.3,0.5h0.6q0.15,0.252.3,0.5h0.6L205.4,84H206l0.6,0.757h0.6l0.6,0.757h0.6l0.6,0.757h0.6l0.9,1.01h0.6l0.6,0.757,0.9,0.252q0.15,0.252.3,0.5h0.6l0.3,0.5h0.6l0.6,0.757h0.6q0.15,0.252.3,0.5h0.6v0.252l0.9,0.252,0.3,0.505h0.6l0.6,0.757h0.6v0.252h0.6q0.15,0.252.3,0.5l1.2,0.252q0.15,0.252.3,0.5h0.6V94.1h0.6v0.252h0.6V94.6h0.6v0.252h0.6v0.252h0.6v0.252h0.6v0.252h0.6v0.252l1.8,0.5v0.252h0.9v0.252h0.9v0.252h0.6V97.38l2.7,0.5v0.252l3.908,0.5a32.081,32.081,0,0,0,7.214.252c3.726-.953,7.4-2.6,9.319-5.049l0.6-1.515H255l0.3-1.01h0.3l0.3-4.292h-0.3V85.767a11.6,11.6,0,0,0-4.509-5.049l-1.5-.252V80.213h-0.6V79.961a14.091,14.091,0,0,0-4.509-.252c-0.934.241-2.149,0.683-3.006,1.01v0.252h1.5a5.676,5.676,0,0,1,3.006-.5v0.252h-0.6c-0.6.574-.665,0.192-1.5,0.5v0.252l-1.5.253V81.98a6.732,6.732,0,0,1-2.4.252C239.629,81.945,239.971,82.132,239.37,81.98Zm-101.9-5.049v0.252h-2.405v0.252h-1.5v0.252h-1.2v0.252h-0.9v0.252h-0.6v0.252h-0.9V78.7l-1.2.252V79.2l-1.2.252q-0.15.252-.3,0.5l-1.2.252q-0.15.252-.3,0.5h-0.6l-0.3.5h-0.6l-0.6.757-1.2.252-0.6.757h-0.6l-0.6.757h0.3V83.5h0.6q0.15-.252.3-0.5h0.6V82.738h0.6q0.15-.252.3-0.5h0.6l0.3-.5h0.6V81.475l1.2-.252q0.15-.252.3-0.5l1.2-.252q0.15-.252.3-0.5l1.2-.252V79.456l1.2-.252V78.951l1.5-.252V78.446h0.9V78.193l2.706-.252V77.689l5.711-.5c1.066-.011,2.721.185,3.307-0.252h-6.914Zm33.968,0c0.954,0.665,3.106-.087,4.509.252,1.48,0.359,3.425.625,4.809,1.01h1.2c5.293,1.607,9.16,4.655,13.827,6.816-0.623-.85-1.465-0.958-2.4-1.515l-0.6-.757h-0.6l-0.3-.5-1.2-.252-0.6-.757h-0.6l-0.3-.5h-0.6l-0.6-.757-1.2-.252-0.3-.5-2.706-.757V78.193h-0.6V77.941l-2.1-.252C178.229,76.887,175.309,76.954,171.435,76.931ZM62.317,78.193v0.252l-1.8.253v0.252h-0.6V79.2h-0.6l-0.6.757-1.8,1.262v0.505l-0.6.252v0.5H56v0.5H55.7v0.757c-0.907,1.914-2.146,4.357-1.2,7.069v1.515h0.3L55.1,94.1h0.3l-0.3-6.311h0.3v0.5h0.3v1.767H56c0.312,0.808-.01,1.475.6,2.02l-0.3-5.3V85.262c1.111-2.892,3.793-6.17,7.515-6.816V78.193h-1.5Zm73.046,1.262v0.757l3.006-.252V79.708h3.607a6.766,6.766,0,0,1,2.705-.253v0.253h1.8v0.252h0.9v0.252h0.9v0.252l3.006,0.252a11.5,11.5,0,0,0,2.706.757c-0.218-.7-0.084-0.565-0.9-0.757V80.466l-1.5-.252V79.961h-0.6V79.708l-1.2-.253V79.2h-0.9V78.951h-0.9V78.7h-1.2V78.446h-2.4a7.81,7.81,0,0,0-3.006-.252v0.252H138.97Zm24.949,2.272a17.549,17.549,0,0,0,2.405-.757h1.5V80.718h1.2V80.466h1.5V80.213h0.9V79.961h0.6V79.708h1.8V79.456a6.729,6.729,0,0,1,2.706.253h3.607v0.252h2.705v0.252h0.3V79.961h0.3V79.708c-2.435-.951-6.256-2.147-9.919-1.262h-2.1l-7.214,2.525Q160.463,81.349,160.312,81.728Zm98.3,5.3h0.6q0.15,1.515.3,3.029h-0.3a6.729,6.729,0,0,0,0,3.029q0.15-.883.3-1.767h0.3V89.807h0.3l0.3,1.515h-0.3a4.717,4.717,0,0,0,0,2.777h0.3V92.331a15.109,15.109,0,0,0,0-4.8h-0.3V86.272c-1.494-3.644-3.352-7.728-8.718-8.079v0.252h0.3a3.742,3.742,0,0,0,.9.5V79.2h0.6l0.6,0.757h0.6l0.9,1.01h0.3v0.5l0.9,0.5v0.5h0.3v0.5l0.6,0.252V84A9,9,0,0,1,258.609,87.03ZM185.262,81.98c0.343,0.287,0,.1.6,0.252C185.521,81.945,185.862,82.132,185.262,81.98Zm-67.334.757c-1.08,1.041-3.1,1.483-4.509,2.272q-0.151.252-.3,0.5l-0.9.252V86.02l-1.2.252v0.253l-0.9.252q-0.15.252-.3,0.5h-0.6l-0.3.5h-0.6l-0.3.5h-0.6q-0.151.252-.3,0.5h-0.6l-0.3.5-1.2.253-0.6.757-1.2.252-0.3.5-1.2.252v0.253h-0.6q-0.15.252-.3,0.5h-0.6l-0.3.5h-0.6v0.252h-0.6l-0.3.5h-0.6v0.252c-0.662.342-.425-0.111-0.9,0.5h-0.3v0.252h0.6c0.66-.612,1.515-0.6,2.4-1.01V93.089h0.6l0.3-.5,1.8-.5q0.151-.252.3-0.5l1.2-.253q0.151-.252.3-0.5l1.2-.252q0.151-.252.3-0.5h0.6l0.3-.5h0.6q0.15-.252.3-0.5h0.6l0.3-.5h0.6l0.3-.505h0.6q0.151-.252.3-0.5h0.6l0.3-.5h0.6q0.15-.252.3-0.5h0.6l0.3-.5h0.6l0.3-.5h0.6q0.152-.252.3-0.5h0.6l0.3-.5h0.6l0.3-.5h0.6l0.3-.5h0.6a3.074,3.074,0,0,1,.6-0.5C118.186,82.7,118.528,82.89,117.928,82.738Zm78.156,0c0.712,0.953,1.891,1.142,3.006,1.767q0.15,0.252.3,0.5h0.6l0.3,0.5h0.6l0.3,0.5h0.6q0.151,0.252.3,0.5l0.9,0.252V87.03l1.2,0.252,0.6,0.757h0.6l0.3,0.505,1.2,0.252v0.252l0.9,0.252q0.151,0.252.3,0.505h0.6v0.252h0.6q0.151,0.252.3,0.5l1.2,0.252q0.151,0.252.3,0.5l1.2,0.253q0.151,0.252.3,0.5l1.2,0.252q0.151,0.252.3,0.5l1.2,0.252v0.252l4.209,1.515a8.879,8.879,0,0,0-2.405-1.515h-0.6l-0.3-.5h-0.6V92.584h-0.6l-0.3-.5-1.2-.252-0.3-.5-1.2-.252-0.3-.5h-0.6q-0.15-.252-0.3-0.5l-1.2-.252q-0.15-.252-0.3-0.505h-0.6l-0.3-.5h-0.6l-0.3-.5h-0.6q-0.151-.252-0.3-0.5l-0.9-.252V87.282l-1.2-.252-0.3-.5-1.2-.253-0.3-.5h-0.6q-0.15-.252-0.3-0.5Zm-20.14,2.02,2.705,0.757V85.262l-2.705-1.01v0.505Zm4.809,5.807v0.5l2.1,1.515v0.252l0.9,0.252,0.6,0.757h0.6l0.9,1.01h0.6l0.6,0.757h0.6l0.6,0.757h0.6q0.151,0.252.3,0.5h0.6l0.9,1.01,0.9,0.252q0.15,0.252.3,0.5h0.6l0.9,1.01h0.6l0.9,1.01h0.6l0.6,0.758h0.6c0.1,0.168.2,0.336,0.3,0.5l0.9,0.252v0.253h0.6l0.3,0.5,1.2,0.253v0.252l1.2,0.253v0.252h0.9V104.2h0.6v0.252l1.8,0.5v0.253h0.9v0.252H206v0.252l1.8,0.253v0.252h0.9v0.253h0.9v0.252h1.2v0.253h1.8v0.252h2.1v0.253h2.1v0.252h2.405v-0.252a14.149,14.149,0,0,1-4.809-1.01h-1.2v-0.253h-1.2v-0.252h-1.2v-0.253h-0.9v-0.252h-1.2v-0.252h-0.9v-0.253h-0.6V104.7l-1.8-.253V104.2l-1.2-.253v-0.252h-0.9v-0.253l-1.8-.5v-0.252h-0.6V102.43l-1.8-.505q-0.15-.253-0.3-0.5l-1.8-.5c-0.1-.169-0.2-0.337-0.3-0.505h-0.6l-0.3-.505h-0.6V99.653l-0.9-.252-0.3-.5h-0.6l-0.6-.757h-0.6l-0.3-.5h-0.6l-0.9-1.01h-0.6l-0.6-.757h-0.6l-0.6-.757h-0.6l-0.6-.757h-0.6l-0.6-.757h-0.6l-0.9-1.01h-0.6l-0.6-.757Zm24.95,0a5.3,5.3,0,0,0,2.1,1.01A3.774,3.774,0,0,0,205.7,90.564Zm-97.695.252a7.987,7.987,0,0,1-2.1,1.01v0.252h-0.6v0.252h-0.6l-0.3.5-1.2.252-0.3.5H102a7.75,7.75,0,0,0-1.8,1.262h0.3c0.535-.5.639-0.209,1.2-0.5l0.3-.5,1.5-.252,0.3-.5,1.2-.252,0.3-.5,1.2-.252,0.3-.5c0.967-.458.754,0.284,1.5-0.757h-0.3ZM97.186,107.984v0.505l4.81-.758v-0.252l1.2-.253v-0.252l1.8-.253v-0.252l5.11-1.01v-0.252h0.6v-0.253h0.9V104.7l1.2-.253V104.2h0.9v-0.253h0.6v-0.252l1.2-.253v-0.252h0.9v-0.253l1.8-.5v-0.253h0.6v-0.252h0.6v-0.253h0.6V101.42h0.6v-0.253h0.6v-0.252h0.6v-0.253h0.6V100.41h0.6c0.1-.168.2-0.337,0.3-0.505l1.8-.5,0.3-.5,1.2-.252V98.39l0.9-.252q0.15-.252.3-0.5l1.2-.252V97.128a2.758,2.758,0,0,1,1.2-.5V96.371a7.921,7.921,0,0,0-2.4,1.01h-0.6l-0.3.5h-0.6v0.252h-0.6l-0.3.5-1.8.5-0.3.505-1.2.252v0.252h-0.6v0.253l-3.307,1.01v-0.253h0.3l15.631-10.1V90.816h-0.6c-0.635.848-1.187,0.725-2.1,1.262l-0.3.5-0.9.252-0.6.757h-0.6l-0.6.757h-0.6q-0.151.252-.3,0.5h-0.6l-0.6.757h-0.6l-0.3.5-0.9.253-0.9,1.01h-0.6l-0.6.757h-0.6l-0.6.757h-0.6l-0.9,1.01h-0.6l-0.3.505h-0.6l-0.6.757-1.2.253c-0.1.168-.2,0.336-0.3,0.5l-1.8.505v0.252h-0.6v0.252h-0.6v0.253l-1.8.5v0.252l-1.5.253v0.252h-0.6V104.7l-1.8.252v0.253h-0.6v0.252l-1.8.252v0.253h-0.9v0.252h-0.9v0.253h-0.9v0.252h-0.9v0.253h-0.9v0.252h-1.2v0.253Zm110.922-16.41a12.857,12.857,0,0,0,3.908,2.02V93.341Zm4.208,2.02a2.6,2.6,0,0,0,1.5.757V94.1A6.883,6.883,0,0,0,212.316,93.593ZM55.4,94.351v0.5h0.3v-0.5H55.4Zm139.178,0a7.989,7.989,0,0,0,1.8,1.01l0.6,0.757h0.6q0.15,0.252.3,0.5l1.2,0.252q0.15,0.252.3,0.5h0.6l0.3,0.5,0.9,0.252V98.39l1.2,0.252,0.3,0.5,1.2,0.253,0.3,0.5,1.8,0.505,0.3,0.505,1.8,0.5,0.3,0.5,1.8,0.505,0.3,0.5h0.6v0.253l1.2,0.252v0.253h0.9v0.252h0.9V104.2h0.6v0.252h0.9V104.7h1.2v0.252h0.6v0.253h1.2v0.252h1.2v0.252h1.2v0.253h1.5v0.252h2.1v-0.252l-5.11-.757v-0.253h-1.2V104.7h-1.2v-0.253h-0.6V104.2h-0.9v-0.253h-0.9v-0.252h-0.6v-0.253h-0.9v-0.252h-0.6c-0.1-.168-0.2-0.337-0.3-0.5h-0.6V102.43h-0.6v-0.253h-0.6v-0.252h-0.6l-0.3-.5-1.8-.5-0.3-.505-1.8-.505-0.3-.5-1.2-.253-0.3-.5-1.2-.252-0.3-.5-1.2-.252-0.3-.5-1.2-.252-0.3-.5h-0.6A13.474,13.474,0,0,0,194.581,94.351Zm64.93,0a0.776,0.776,0,0,0,.6.757A1.9,1.9,0,0,0,259.511,94.351Zm-205.01.5c0.123,3.356,4.328,7.486,7.215,8.583l-1.5-1.514h-0.6l-0.9-1.01-0.6-.253v-0.505l-0.9-.5V99.148l-0.6-.252-0.3-1.01H56l-0.3-1.01H55.4V96.118l-0.6-.252v-1.01H54.5Zm152.1,0c0.69,0.849,1.338.552,2.405,1.01v0.252h0.6v0.253l1.5,0.252v0.252l1.2,0.252V97.38h0.9v0.252l1.2,0.252v0.252h0.9V98.39l1.2,0.252V98.9h0.9v0.252h0.6V99.4l1.8,0.252V99.9h0.6v0.252h1.2v0.253h0.9v0.252h0.9v0.253h0.9v0.252l3.006,0.253v0.252h9.319V101.42a18.583,18.583,0,0,1-4.509-.5h-2.405v-0.253l-2.705-.252v-0.253h-1.2V99.9h-1.2V99.653h-1.2V99.4h-1.2V99.148h-0.9V98.9h-0.9V98.643h-1.2V98.39l-2.1-.252V97.885h-0.9V97.633h-0.9V97.38h-0.9A42.976,42.976,0,0,0,206.605,94.856Zm-99.8.252v0.252l-1.5.252v0.252h-0.9v0.252h-0.9v0.253h-0.6v0.252H102v0.252h-0.9v0.252h-0.6V97.38l-2.706.5v0.252h-0.9V98.39h-0.9v0.252l-4.208.757v0.252l-2.4.252v0.252h-1.5v0.253h-1.2v0.252h-1.5v0.253h-2.4v0.252H80.052v0.253h-0.6v0.252h8.717c0.69-.509,1.431-0.225,2.4-0.5v-0.252h1.2v-0.253l2.1-.252v-0.253h0.9V99.9h0.6V99.653l1.8-.252V99.148l1.2-.252V98.643h0.9V98.39h0.6V98.138l1.8-.5V97.38h0.9V97.128h0.6V96.875h0.6V96.623h0.6V96.371h0.9V96.118a13.305,13.305,0,0,1,2.4-.757V95.108h-0.9Zm2.706,0c-0.5.6-.226,0.158-0.9,0.5v0.252h-0.6l-0.3.5h-0.6v0.252h-0.6l-0.3.5h-0.6V97.38H105v0.252h-0.6v0.252h-0.6v0.252h-0.6V98.39h-0.6v0.252H102V98.9l-1.8.5v0.252h-0.9V99.9l-1.2.252v0.253l-3.607,1.01v0.252h0.9V101.42l1.8-.253v-0.252h0.9v-0.253h0.6V100.41h0.9v-0.253h0.9V99.9l1.2-.252V99.4h0.6V99.148h0.6V98.9h0.6V98.643h0.6V98.39h0.6V98.138h0.6V97.885h0.6l0.3-.5h0.6q0.151-.252.3-0.5h0.6l0.6-.757h0.6l0.9-1.01h-0.3Zm8.717,0v0.252h-0.6q-0.15.252-.3,0.5h-0.6v0.252h-0.6l-0.3.5h-0.6v0.252h-0.6v0.252l-0.9.252-0.3.5h-0.6v0.252h-0.6l-0.3.5-1.8.5q-0.15.252-.3,0.505h-0.6V99.9h-0.6v0.252h-0.6v0.253h-0.6v0.252l-1.8.5c-0.1.168-.2,0.337-0.3,0.5h-0.6v0.253l-0.9.252v0.253h0.6v-0.253l1.5-.252v-0.253l1.2-.252v-0.253l1.8-.5V100.41h0.6v-0.253h0.6V99.9h0.6l0.3-.5,1.2-.253,0.3-.5,1.8-.5q0.152-.252.3-0.5h0.6l0.3-.5h0.6l0.3-.5c0.846-.486,1.286-0.457,1.8-1.262h0.3V95.108h-0.3Zm85.972,0c0.545,0.746,1.188.815,2.1,1.262v0.252h0.6l0.3,0.5h0.6V97.38h0.6v0.252h0.6v0.252h0.6v0.252h0.6l0.3,0.5,7.515,2.524c0.9,0.283,4.272.868,4.809,0.5a9.016,9.016,0,0,1-2.7-.757h-0.9v-0.253h-0.6V100.41l-2.7-.505V99.653h-0.6V99.4h-0.9V99.148h-0.6V98.9h-0.9V98.643l-1.8-.5V97.885h-0.6V97.633h-0.6V97.38h-0.6V97.128h-0.6V96.875h-0.6C206.855,96.3,205.844,95.435,204.2,95.108Zm-10.22,1.01a5.418,5.418,0,0,0,2.1,1.262v0.252h0.6l0.3,0.5,1.2,0.252,0.3,0.5,1.8,0.5q0.151,0.252.3,0.5h0.6a11.417,11.417,0,0,0,3.006,1.262,9.847,9.847,0,0,0-2.1-1.262h-0.6l-0.3-.5h-0.6V99.148h-0.6V98.9h-0.6q-0.151-.252-0.3-0.5l-1.2-.252q-0.151-.252-0.3-0.5l-1.2-.252V97.128Zm59.819,6.564v0.5h0.3v-0.253a6.78,6.78,0,0,0,1.5-1.262c1.669-1.4,3.618-2.762,3.908-5.3h-0.3C259.044,98.081,255.425,102.337,253.8,102.682ZM119.13,96.623c-0.618.863-.884,0.516-1.8,1.01l-0.3.5h-0.6l-0.3.5h-0.6V98.9h-0.6v0.252l-0.9.253v0.252h0.6c0.632-.791,1.2-0.533,2.1-1.01l0.3-.5h0.6V97.885h0.6l0.3-.5h0.6a2.984,2.984,0,0,1,.6-0.5C119.389,96.588,119.73,96.775,119.13,96.623Zm64.93,0a8.368,8.368,0,0,0,2.405,1.262v0.252h0.6V98.39h0.6l0.3,0.5h0.6v0.252h0.6V99.4h0.6v0.252h0.6q0.151,0.252.3,0.5l1.2,0.253v0.252h0.6v0.253l1.8,0.5v0.252h0.9v0.253c0.471,0.161.816,0.118,1.2,0.252-0.657-.823-1.38-0.8-2.405-1.262v-0.253h-0.6V100.41h-0.6v-0.253h-0.6V99.9h-0.6V99.653h-0.6V99.4h-0.6l-0.3-.5h-0.9q-0.15-.252-0.3-0.5h-0.6V98.138h-0.6V97.885h-0.6V97.633h-0.6C185.519,97.2,185.549,96.775,184.06,96.623Zm-21.944,1.515v0.5a6.734,6.734,0,0,1,1.2,1.514l1.2,0.758,2.1,2.019h0.6q0.451,0.506.9,1.01h0.6c0.1,0.169.2,0.337,0.3,0.5h0.6l0.6,0.758,1.2,0.252,0.3,0.5h0.6v0.252h0.6l0.3,0.505,2.1,0.253v-0.253l-1.8-.505c-0.1-.168-0.2-0.336-0.3-0.5l-1.2-.252-0.3-.505h-0.6c-0.1-.168-0.2-0.337-0.3-0.5h-0.6l-5.411-3.787C163.888,99.878,163.277,98.721,162.116,98.138Zm-9.319.252-4.509,4.04h-0.6q-0.3.378-.6,0.757h-0.6q-0.3.378-.6,0.757l-1.2.253-0.3.5h-0.6l-0.3.5-1.2.252-0.3.5h-0.6v0.252h-0.6v0.253l-0.9.252v0.253h0.6v-0.253l1.5-.252v-0.253h0.6v-0.252h0.6l0.3-.5,1.2-.252c0.1-.169.2-0.337,0.3-0.5h0.6v-0.253h0.6c0.1-.168.2-0.336,0.3-0.5h0.6q0.451-.5.9-1.01h0.6l1.8-1.767c0.865-.728,2.048-1.37,2.4-2.524h0.3V98.39h-0.3Zm-8.416.5-0.6.757h0.3l0.6-.757h-0.3ZM251.7,99.4V98.9a2.638,2.638,0,0,0-.6.5h-0.6v0.252h-0.6l-0.3.5-1.5.253c-0.1.168-.2,0.336-0.3,0.505h-0.9v0.252h-0.9c-0.1.168-.2,0.337-0.3,0.5h-1.2v0.253h-0.3v0.252h0.6v-0.252l2.1-.253V101.42l1.2-.253v-0.252h0.9l0.3-.505,1.2-.253V99.9A2.682,2.682,0,0,1,251.7,99.4Zm-187.274.757,1.2,0.253,0.3,0.505h0.9v0.252h0.9v0.253a9.511,9.511,0,0,0,2.4.5v-0.253a22.418,22.418,0,0,1-5.711-2.019v0.5Zm80.561,0.758V100.41a0.912,0.912,0,0,0,.9-0.505h-0.3c-0.53.5-.655,0.209-1.2,0.505q-0.151.252-.3,0.505h-0.6v0.252h-0.6c-0.1.168-.2,0.337-0.3,0.5l-1.2.253v0.252l-1.2.253v0.252h-0.9v0.252l-2.705.758v-0.253h0.3a9.867,9.867,0,0,1,2.1-1.262h0.6c0.1-.168.2-0.337,0.3-0.505,1.263-.7,2.828-0.922,3.607-2.019h-0.3c-0.5.6-.225,0.159-0.9,0.5v0.253h-0.6l-0.3.505h-0.6v0.252h-0.6v0.253h-0.6v0.252h-0.6v0.253h-0.6q-0.151.252-.3,0.505l-1.2.252c-0.1.168-.2,0.337-0.3,0.5h-0.9v0.252h-0.6q-0.15.254-.3,0.505h-0.9V104.2l-1.2.252V104.7h-0.9v0.252h-0.6v0.253h-0.9v0.252h-0.6v0.252l-3.607.5v0.253h-0.9v0.252h-0.6v0.253l-2.7.5v-0.253h0.3v-0.252l1.8-.253v-0.252l1.8-.5c0.1-.168.2-0.337,0.3-0.5h0.9v-0.252h0.6v-0.253l0.9-.252v-0.253l-3.607,1.01v0.252h-0.6v0.253h-0.9v0.252h-0.6v0.253h-0.9v0.252h-0.6v0.253h-0.9v0.252h-0.6v0.253h-0.9v0.252l-1.2.253v0.252h-0.9v0.253h-0.6v0.252l-8.116,2.02h-1.8v0.252h-1.5v0.253c-0.767.2-1.407,0.026-2.1,0.252v0.252h1.2c0.853-.591,2.64.056,3.908-0.252v-0.252h2.1v-0.253h1.5v-0.252h1.8v-0.253l2.405,0.253q0.15-.254.3-0.5l3.907-.253,17.135-4.8v-0.253l1.2-.252v-0.253h0.6c0.1-.168.2-0.336,0.3-0.5l1.2-.252,0.3-.5,1.2-.253q0.3-.378.6-0.757h0.6l0.3-.505h0.6V101.42A2.686,2.686,0,0,1,144.982,100.915Zm44.489,5.3v0.505l-1.8-.505v-0.252h-2.705v-0.253l-1.5-.252v-0.252h-0.6v-0.253h-0.9V104.7h-0.6v-0.253h-0.9V104.2l-1.5-.253v-0.252l-1.2-.253v-0.252h-0.9v-0.253h-0.6v-0.252h-0.6V102.43h-0.6v-0.253h-0.6v-0.252h-0.6v-0.253h-0.6V101.42h-0.6v-0.253h-0.6c-0.1-.168-0.2-0.336-0.3-0.5h-0.6c-0.578-.275-1.2-0.73-1.8-1.01V99.9l2.1,1.262,0.3,0.5h0.6c0.1,0.168.2,0.337,0.3,0.505h0.6q0.3,0.378.6,0.757h0.6l0.3,0.5h0.6l0.3,0.505,0.9,0.253v0.252l1.2,0.253v0.252h0.6v0.253l1.8,0.5v0.253l2.705,0.5v0.252l1.8,0.253v0.252h0.6v0.253h0.9v0.252h1.2v0.253h0.9v0.252h1.2v0.253h0.9v0.252h0.6v0.252l2.1,0.253V109.5h0.9v0.253h1.2V110h1.5v0.253h0.9v0.252h1.8v0.253l2.1,0.252v-0.252c-0.993-.283-2.666-0.452-3.307-1.01l3.607,0.5v0.252h1.5v0.253h1.2v0.252h0.9v0.253h2.1a23.2,23.2,0,0,0,5.11.757c1.374,0.021,4.726.7,5.711,0a22.779,22.779,0,0,1-6.312-.757h-1.8v-0.253h-1.5v-0.252h-1.2v-0.253H206v-0.252l-3.307-.5V109.5h-0.9v-0.252h-0.9v-0.253h-1.2v-0.252h-0.6v-0.252h-0.9v-0.253h-1.2v-0.252h-0.6v-0.253h-1.2v-0.252h-0.9v-0.253h-0.9v-0.252h-0.9v-0.253h-0.9v-0.252l-1.8-.253v-0.252l-1.2-.253v-0.252h-0.9v-0.252l-1.2-.253V104.7h-0.9v-0.253l-1.2-.252v-0.253h-1.2l-0.3-.505-1.8-.252v-0.253l-1.8-.5v0.252h0.6c0.594,0.7,1.461.623,2.405,1.01v0.252h0.9V104.2l1.2,0.252V104.7l1.5,0.252v0.253l1.8,0.252v0.252h0.6v0.253A2.494,2.494,0,0,0,189.471,106.216Zm-77.255-6.059c0.343,0.288,0,.1.6,0.253C112.475,100.122,112.816,100.309,112.216,100.157ZM73.138,102.43v0.252h2.1v0.252c1.512,0.353,7.864-.079,8.417-0.5H73.138Zm156.914,0c0.929,0.728,7.521.617,9.018,0.252h2.405V102.43H230.052ZM102,103.692c0.342,0.287,0,.1.6,0.252C102.255,103.657,102.6,103.844,102,103.692Zm27.956,0c0.342,0.287,0,.1.6,0.252C130.21,103.657,130.552,103.844,129.952,103.692Zm6.012,0h0.6v0.252h-0.6v-0.252Zm53.807,0c0.849,0.8,1.777.555,3.006,1.01v0.252l1.2,0.253v0.252h0.9v0.252h0.9v0.253h0.9v0.252h0.9v0.253h0.6v0.252h0.9v0.253h1.2v0.252h0.6v0.253h0.9v0.252H203v0.253h1.2v0.252h0.9v0.253h1.5v0.252h1.5v0.252l3.908,0.253v-0.253a25.652,25.652,0,0,1-7.215-1.262l-3.006-.5v-0.252h-1.2v-0.253h-0.9v-0.252h-0.9v-0.253h-0.9v-0.252h-0.6v-0.253l-2.1-.252C193.55,104.864,191.885,103.908,189.771,103.692Zm-88.978.252c-0.677.609-.608,0.211-1.5,0.5V104.7h-1.2v0.252h-0.9v0.253h-1.2v0.252h-1.8v0.252h-0.9v0.253h-2.1v0.252l4.509-.252v-0.253h0.6v-0.252l2.4-.252v-0.253l2.706-.757v-0.253h-0.6Zm28.257,0c0.342,0.288,0,.1.6,0.253C129.309,103.909,129.65,104.1,129.05,103.944Zm116.633,0c0.343,0.288,0,.1.6,0.253C245.942,103.909,246.283,104.1,245.683,103.944Zm-175.25.5c0.342,0.288,0,.1.6,0.253C70.692,104.414,71.033,104.6,70.433,104.449Zm173.146,0V104.7h1.2v-0.253h-1.2ZM72.236,104.7v0.252h1.2V104.7h-1.2Zm168.938,0c-0.342.287,0,.1-0.6,0.252v0.253h0.9v-0.253h1.5V104.7h-1.8Zm-164.128.5c0.342,0.287,0,.1.6,0.252C77.3,105.172,77.646,105.358,77.046,105.207Zm157.815,0a15.277,15.277,0,0,0,4.509.252v-0.252h-4.509Zm-118.436.757c0.342,0.287,0,.1.6,0.252C116.683,105.929,117.025,106.116,116.425,105.964Zm-28.858.252v0.253h-1.5v0.252a11.244,11.244,0,0,0,3.607-.505h-2.1Zm137.375,0c0.157,0.139,2.159.784,2.7,0.505v-0.252Zm-141.283.505v0.253h2.1v-0.253h-2.1Zm144.589,0v0.253h2.405v-0.253h-2.405Zm-117.835.758a0.756,0.756,0,0,0,.9.252v-0.252h-0.9Zm-42.385.5c0.912,0.766,6.977,1.473,9.018,1.514,1.2,0.025,2.543.555,3.307,0C75.987,109.47,71.974,108.34,68.028,107.984Zm38.777,0.252a0.759,0.759,0,0,0,.9.253v-0.253h-0.9Zm137.375,0v0.253h-2.1v0.252h-1.2v0.252h-2.4v0.253c-1.442.347-2.714-.2-3.608,0.505l6.914-.505v-0.253h1.8v-0.252h0.6v-0.252h1.2v-0.253h-1.2Zm-139.779.5c0.342,0.287,0,.1.6,0.252C104.659,108.706,105,108.893,104.4,108.741Zm-2.1.252v0.253h1.5v-0.253h-1.5Zm8.417,0v0.253h1.2v-0.253h-1.2Zm77.255,0v0.253h1.2v-0.253h-1.2Zm28.256,0v0.253h1.5v-0.253h-1.5Zm-115.13.253V109.5h-1.2v0.253l1.8-.253v-0.252h-0.6Zm8.116,0c-0.863.649-2.269,0.143-3.006,0.505V110h2.1v-0.252l2.1-.253v-0.252h-1.2Zm88.076,0.252h0.6v0.253C197.283,109.606,197.627,109.781,197.286,109.5Zm-98.9.253a0.756,0.756,0,0,0,.9.252v-0.252h-0.9Zm92.585,0c0.342,0.287,0,.1.6,0.252C191.232,109.716,191.574,109.9,190.974,109.751Zm-95.291.5a0.757,0.757,0,0,0,.9.252v-0.252h-0.9Zm-2.4.252v0.253h1.5v-0.253h-1.5Zm-2.4.758v-0.505c-0.944.271-2.653-.05-3.908,0.252-0.409.1,0.119,0.2-.3,0.253-1.058.144-2.379-.218-3.006,0.252Zm110.921-.253v0.253H203v-0.253h-1.2Zm22.245,0v0.253h2.1v-0.253h-2.1Zm-112.726.253c0.343,0.287,0,.1.6,0.252C111.573,111.231,111.915,111.417,111.314,111.266Zm92.285,0v0.252h1.2v-0.252h-1.2Zm23.146,0a8.266,8.266,0,0,0,3.307.252v-0.252h-3.307Zm7.816,0v0.252h1.2v-0.252h-1.2Zm-133.166.5c0.342,0.288,0,.1.6,0.253C101.653,111.735,102,111.922,101.4,111.77Zm7.815,0a0.758,0.758,0,0,0,.9.253V111.77h-0.9Zm96.493,0a0.758,0.758,0,0,0,.9.253V111.77h-0.9Zm1.8,0.253v0.252h1.2v-0.252h-1.2Zm17.435,10.1v1.01c-0.605.433-.254,0.586-0.6,1.01l-0.6.252-1.2,1.263h-0.6v0.252h-0.6l-0.3.5h-0.9v0.253h-0.9v0.252h-1.2v0.252h-1.5v0.253h-1.5a20.331,20.331,0,0,1-3.607.757q0.3-.758.6-1.514l0.6-.253q0.15-.5.3-1.01l0.6-.252,0.3-1.01,0.6-.252v-0.5h0.3c0.1-.169.2-0.337,0.3-0.5h3.006C218.61,123.283,223.352,122.194,224.942,122.121ZM87.868,127.675a24.871,24.871,0,0,1,6.613,1.01l3.607,0.253c4.332,1.146,9.291,1.243,11.723,4.039l0.9,0.5q0.15,0.505.3,1.01h0.3c1.147,2.206.8,8.093,0,10.351l-0.3,2.777c-0.785,2.095-1.335,4.687-2.706,6.311l-1.2.758q-0.3.378-.6,0.757c-4,2.341-14.156.887-18.637-.253h-1.8c-0.866-.219-2.209-0.48-3.006-0.757a6.618,6.618,0,0,1-.3-2.525h0.3V150.4c0.456-1.253.764-3.034,1.2-4.292v-1.767c1.153-3.233,1.273-7.355,2.4-10.6v-1.767C87.135,130.615,87.242,128.852,87.868,127.675Zm139.779,0.253q0.15,0.5.3,1.01h0.3V129.7a3.083,3.083,0,0,1,.3,2.525h-0.3v0.252L213.218,135a10.022,10.022,0,0,0-.3,3.534q0.45,1.263.9,2.525a5.528,5.528,0,0,0,1.8.252c0.659-.509,1.435-0.243,2.405-0.5v-0.252l4.509-.5v-0.253h1.5v-0.252l3.607-.5v0.253c0.83,0.182.672,0.07,0.9,0.757,0.58,0.5.621,1.737,0.6,2.777a2.522,2.522,0,0,0-.6.5h-0.6v0.252h-1.5c-1.78.477-4.228,0.794-6.012,1.263h-1.5V145.1h-1.5v0.253l-1.8.252v0.252c-0.342.288-.12,0-0.3,0.5-0.867.786,0.653,4.619,0.9,5.554a5.283,5.283,0,0,0,2.706.5c0.749-.548,1.91-0.219,3.006-0.5v-0.252h1.5v-0.252l2.705-.253V150.9h1.8v-0.253h1.5a19.185,19.185,0,0,1,4.509-.757l0.3,0.5c0.735,0.634,1.267,3.685.3,4.292h-0.6v0.252l-3.006.252v0.253h-1.5V155.7h-1.5v0.253h-1.5V156.2h-1.5v0.253h-1.5v0.252l-3.608.253a34.748,34.748,0,0,1-7.515,1.262q-0.3-.378-0.6-0.757h-0.3q-0.151-1.137-.3-2.273h-0.3v-1.262h-0.3v-1.515h-0.3V150.9h-0.3v-1.263h-0.3q-0.15-1.514-.3-3.029h-0.3V145.6h-0.3v-1.515h-0.3V142.57h-0.3v-1.262h-0.3v-1.515h-0.3q-0.3-1.893-.6-3.786a12.2,12.2,0,0,1-.9-4.545l0.6-.252c0.774-.62,1.263-0.21,2.405-0.5v-0.253h1.8V130.2h1.5v-0.252h1.5V129.7h1.5v-0.252h1.5V129.19h1.2v-0.252h1.8v-0.253h1.2v-0.252h1.5V128.18h1.8v-0.252A8.683,8.683,0,0,1,227.647,127.928Zm-30.361,4.292c0.226,0.945.6,2.832,0,3.787l-0.6.252v0.505h-0.3v0.5h-0.3l-0.6,1.515-0.6.252v0.5h-0.3v0.5h-0.3v0.5h-0.3v0.505h-0.3v0.5l-0.6.252v0.757l-0.6.253q-0.3.757-.6,1.515h-0.3q-0.15.5-.3,1.01h-0.3l-0.3,1.009h-0.3v0.5h-0.3v0.5h-0.3v0.505h-0.3v0.5h-0.3l-0.6,1.515c-1.059,1.662-2.681,3.036-3.006,5.3a3.429,3.429,0,0,1,.6.5h3.908c0.631-.461,1.71-0.018,2.7-0.252v-0.253l7.515-.5a6.6,6.6,0,0,1,1.2,4.039,4.141,4.141,0,0,1-3.006.757c-1.087.785-5.168,0.094-6.914,0.5v0.253h-3.607V160.5h-3.307a34.193,34.193,0,0,1-7.214.5c-0.1-.252-0.2-0.5-0.3-0.757h-0.3v-2.02h0.3v-0.757h0.3q0.3-.757.6-1.515h0.3l0.6-1.515h0.3q0.15-.506.3-1.01h0.3q0.151-.5.3-1.01h0.3v-0.5h0.3v-0.5h0.3V150.9h0.3v-0.5h0.3q0.15-.505.3-1.01h0.3v-0.5h0.3v-0.757h0.3l0.6-1.515h0.3V146.1h0.3v-0.5h0.3v-0.5h0.3v-0.5h0.3v-0.5h0.3v-0.5h0.3q0.3-.758.6-1.514c0.8-1.255,1.927-2.245,2.1-4.04a12.4,12.4,0,0,0-3.306-.252c-0.627.466-1.711,0.02-2.706,0.252v0.253h-2.705v0.252a19.16,19.16,0,0,1-4.81,0l-0.3-1.01h-0.3v-3.282l0.9-.252c1.124-.839,3.132-0.11,4.809-0.5V133.23h3.608v-0.253h3.006v-0.252h3.306v-0.253h3.307V132.22A14.122,14.122,0,0,1,197.286,132.22Zm-77.254,19.944h0.9v-0.253a0.492,0.492,0,0,0,.3-0.252,0.492,0.492,0,0,1-.3-0.252h-1.2c-0.117-5.926.2-14.669,4.209-16.915,3.268-1.83,13.353-1.639,17.435-.5h1.2v0.252h0.9v0.253h0.9v0.252h0.6V135h0.6v0.252l1.5,1.01v0.505l0.6,0.252v0.758h0.3v0.5h0.3v1.01h0.3v1.767h0.3v3.282h0.3v2.524h-0.3v4.04h-0.3v2.524h-0.3v1.263h-0.3V155.7h-0.3v0.758h-0.3q-0.151.5-.3,1.01h-0.3v0.5l-0.6.253q-0.6.631-1.2,1.262l-1.2.253v0.252h-0.9v0.253h-1.5V160.5H138.97v0.253a17.074,17.074,0,0,1-5.712-.253h-3.607v-0.252h-2.1V159.99h-1.2v-0.252h-1.2v-0.253l-1.8-.505v-0.252h-0.6l-0.6-.758-0.6-.252v-0.5h-0.3a3.21,3.21,0,0,0-.6-0.757,5.909,5.909,0,0,0-.6-2.02v-2.272ZM92.677,133.482l-0.3,1.262h-0.3v2.02h-0.3v1.515h-0.3v1.514h-0.3v2.02c-0.474,1.384-.713,3.388-1.2,4.8v1.515c-0.376,1.1-.535,1.876.6,2.524V150.9h0.9v0.252l3.908,0.253c1.812,0.43,5.527.951,7.214,0l1.5-1.515v-0.758h0.3v-0.757h0.3V147.62H105v-1.01h0.3v-1.262h0.3v-1.515h0.3v-2.272h0.3v-3.282c-0.227-.63-0.715-1.305-0.9-2.02l-0.9-.5V135.5l-1.8-.5v-0.253l-2.1-.252A29.269,29.269,0,0,0,92.677,133.482Zm102.2,0.757v0.5h0.9v-0.252Zm-64.63,3.787-2.705.758a17.046,17.046,0,0,0-1.2,1.514v1.768c-0.675,2.039-.3,5.35-0.3,7.826,0,1.221-.238,3.5.3,4.292l0.6,0.252c1.77,1.523,5.159,1.263,8.717,1.262h3.607v-0.252h0.9v-0.253h0.9l0.6-.757h0.3c0.631-.8.241-1.707,0.6-2.777h0.3v-3.787h0.3v-2.524c0-2.709.128-5.752-2.405-6.312C139.485,137.965,133.14,138.012,130.252,138.026Zm103.407,14.643c-0.1-.253-0.2-0.505-0.3-0.758a0.493,0.493,0,0,0-.3.253h-0.3a0.491,0.491,0,0,0,.3.252C233.4,152.7,233.059,152.517,233.659,152.669Zm-112.425.5v0.252h-0.3c-0.156.314,0.743,0.628,0.9,0.758l0.3-.758Zm78.157,4.292h0.6v-0.758h-0.3v0.253C199.349,157.248,199.571,156.962,199.391,157.466Zm-20.141,0v0.5l-0.9.253v0.757c1.148-.167,1.679-0.444,1.8-1.514h-0.9Z"/>
</svg>
